<?xml version="1.0" standalone="no"?>
<!DOCTYPE svg PUBLIC "-//W3C//DTD SVG 20010904//EN"
 "http://www.w3.org/TR/2001/REC-SVG-20010904/DTD/svg10.dtd">
<svg version="1.0" xmlns="http://www.w3.org/2000/svg"
 width="918.000000pt" height="402.000000pt" viewBox="0 0 918.000000 402.000000"
 preserveAspectRatio="xMidYMid meet">

<g transform="translate(0.000000,402.000000) scale(0.100000,-0.100000)"
fill="#ffff" stroke="none">
<path d="M1805 3138 c-2 -7 -27 -116 -56 -243 -29 -126 -53 -231 -54 -233 -2
-2 -29 4 -60 13 -68 20 -200 23 -276 6 -83 -19 -226 -94 -306 -161 -118 -98
-255 -292 -312 -443 l-11 -27 70 0 70 0 -10 -24 c-45 -118 -64 -407 -35 -519
32 -123 104 -215 203 -260 95 -42 288 -32 435 23 l47 18 0 -34 0 -34 298 0
299 0 42 188 c98 433 141 624 141 633 0 5 -32 9 -71 9 -62 0 -70 2 -65 18 4
12 157 684 241 1060 l5 22 -295 0 c-228 0 -297 -3 -300 -12z m-219 -912 c3 -7
-2 -43 -10 -80 -24 -100 -26 -96 53 -96 l69 0 -13 -52 c-7 -29 -27 -115 -45
-190 -30 -133 -32 -137 -62 -147 -73 -26 -145 -4 -175 52 -32 60 -18 200 32
320 6 15 0 17 -64 17 l-70 0 22 38 c33 56 102 119 150 135 54 20 106 21 113 3z"/>
<path d="M3160 2684 c-224 -48 -446 -183 -585 -357 -59 -74 -155 -239 -155
-266 0 -7 25 -11 65 -11 36 0 65 -2 65 -5 0 -3 -9 -38 -21 -78 -26 -91 -36
-279 -20 -360 31 -147 140 -282 284 -351 211 -102 523 -111 796 -24 73 23 198
76 218 92 1 1 20 75 43 166 23 91 43 173 46 183 5 15 -4 17 -86 17 -83 0 -95
-2 -121 -24 -64 -54 -219 -91 -353 -84 -162 8 -247 78 -237 196 1 9 92 12 420
12 l419 0 27 118 c15 64 29 123 31 130 2 7 21 12 50 12 l46 0 -7 -37 c-3 -21
-44 -204 -91 -407 -46 -203 -81 -372 -78 -375 3 -3 136 -6 296 -6 l291 0 43
190 c24 105 64 282 89 395 25 113 48 213 51 223 5 15 -2 17 -50 17 -63 0 -68
8 -40 66 22 46 99 84 172 84 48 0 58 -4 89 -35 34 -34 38 -35 108 -35 62 0 74
3 79 18 23 80 108 483 103 488 -4 4 -59 9 -124 12 -127 5 -207 -9 -286 -50
l-40 -20 7 36 7 36 -295 0 c-272 0 -295 -1 -300 -17 -3 -10 -30 -128 -61 -263
-31 -135 -60 -262 -66 -282 l-10 -38 -59 0 -59 0 6 108 c14 279 -115 464 -368
526 -80 20 -248 20 -339 0z m157 -389 c58 -17 106 -64 101 -99 -3 -20 -8 -21
-205 -24 -221 -3 -229 0 -175 50 39 37 75 58 124 73 57 18 94 18 155 0z"/>
<path d="M7345 2680 c-215 -34 -409 -167 -543 -373 -41 -63 -81 -145 -119
-243 -4 -11 9 -14 67 -14 63 0 71 -2 66 -17 -36 -123 -47 -361 -21 -471 16
-67 53 -148 92 -199 35 -46 119 -99 187 -119 77 -21 234 -15 324 14 70 23 76
16 39 -39 -14 -21 -48 -47 -90 -68 -58 -30 -80 -35 -155 -39 -102 -5 -180 18
-227 68 -28 29 -32 30 -120 30 l-92 0 -43 -215 c-24 -119 -41 -218 -38 -220 3
-3 52 -13 109 -22 75 -12 166 -17 324 -17 245 0 359 17 503 74 220 88 385 270
468 512 12 38 55 209 94 380 39 172 73 321 76 331 5 15 -3 17 -65 17 -39 0
-71 2 -71 5 0 3 29 133 65 289 36 156 65 288 65 294 0 9 -75 12 -280 12 -217
0 -292 3 -337 15 -75 20 -202 26 -278 15z m201 -477 c-4 -21 -13 -64 -20 -95
l-14 -58 69 0 c49 0 69 -4 69 -12 -1 -7 -16 -78 -35 -158 -36 -154 -42 -164
-104 -175 -125 -21 -163 106 -96 323 7 21 5 22 -59 22 -36 0 -66 3 -66 6 0 17
56 98 87 125 46 40 88 58 137 59 l39 0 -7 -37z"/>
<path d="M5181 2353 c-40 -159 -74 -296 -77 -305 -5 -16 3 -18 64 -18 l69 0
-28 -132 c-41 -194 -62 -355 -55 -416 16 -134 106 -226 256 -263 101 -25 292
-13 428 27 16 5 22 2 22 -10 0 -14 30 -16 300 -16 165 0 300 3 300 6 0 4 38
176 85 383 47 207 88 386 90 399 5 21 3 22 -60 22 -46 0 -65 4 -65 13 0 7 29
139 65 295 36 155 65 287 65 292 0 9 -600 16 -600 8 0 -2 -31 -139 -69 -305
l-68 -303 67 0 67 0 -40 -177 c-43 -196 -55 -219 -120 -230 -45 -7 -77 16 -77
56 0 14 15 99 34 189 l34 162 -70 0 c-61 0 -69 2 -64 18 9 32 116 563 116 577
0 13 -44 15 -299 15 l-299 0 -71 -287z"/>
</g>
</svg>
